<?xml version="1.0" encoding="utf-8"?>
<!-- Generator: Adobe Illustrator 25.4.1, SVG Export Plug-In . SVG Version: 6.00 Build 0)  -->
<svg version="1.1" id="レイヤー_1" xmlns="http://www.w3.org/2000/svg" xmlns:xlink="http://www.w3.org/1999/xlink" x="0px"
	 y="0px" viewBox="0 0 381.3 67.2" style="enable-background:new 0 0 381.3 67.2;" xml:space="preserve">
<style type="text/css">
	.st0{fill:#231815;}
	.st1{font-family:'HGSMinchoE';}
	.st2{font-size:48px;}
	.st3{font-size:45px;}
	.st4{letter-spacing:1;}
	.st5{font-size:47px;}
	.st6{letter-spacing:-9;}
</style>
<text transform="matrix(1 0 0 1 3.1418 45.49)" class="st0 st1 st2">立</text>
<text transform="matrix(1 0 0 1 51.1418 45.8318)" class="st0 st1 st3 st4">川</text>
<text transform="matrix(1 0 0 1 97.4918 45.2706)" class="st0 st1 st5">研究</text>
<text transform="matrix(1 0 0 1 191.4918 45.2706)" class="st0 st1 st5 st6">所</text>
<path class="st0" d="M269.5,61.4h-239v-2.3h217c1.7,0.1,3.4-0.5,4.7-1.7c1.3-1.4,1.9-3.3,1.8-5.2V20.1c0.1-1.7-0.6-3.4-1.8-4.6
	c-1-1-2.9-1.4-5.9-1.4v-2.3c2.4,0,4.7-0.3,7-0.9c2.6-0.6,5-1.9,7-3.7h1.8v45.1c0,2.7,0.5,4.5,1.5,5.5c1,1,2.4,1.5,3.8,1.4h2
	L269.5,61.4z"/>
<path class="st0" d="M290.1,34.7l-2.5-2.3c-2.9-2.7-4.4-6.6-4.3-10.5c-0.1-4.5,1.6-8.9,4.9-12c2.4-2.3,5.6-3.6,8.9-3.5
	c3.2-0.1,6.3,1,8.6,3.2c2.4,2.1,3.8,5.1,4,8.2c0.2,3.5-0.4,6.4-1.8,8.5c-1.4,2.2-3.3,4-5.5,5.3l1.9,1.5c3,2.2,5.3,5.3,6.5,8.8
	c1.6,5.1,1.2,9.6-1.2,13.5c-3.1,4.9-8.1,7.1-15.1,6.7c-3.5-0.2-6.8-1.7-9.2-4.1c-2.5-2.4-3.8-5.7-3.7-9.1
	C281.5,42.8,284.3,38.1,290.1,34.7z M291.9,36.2c-3.1,2.7-4.8,5.3-5.2,7.6c-1,6.1,0,10.6,3.1,13.5c1.7,1.7,4,2.7,6.5,2.6
	c2.3,0.1,4.5-0.8,6.1-2.3c1.8-1.7,2.9-4.2,2.8-6.7c0-2.5-1.4-5.2-4.3-7.9C298,40.5,295.1,38.2,291.9,36.2L291.9,36.2z M300.5,30
	c1.4-1,2.6-2.3,3.4-3.8c1-1.8,1.5-4.3,1.5-7.6c0-3.5-0.9-6.2-2.8-7.9c-3.2-2.7-7.9-2.7-11.1,0c-2.7,2.5-3.5,5.4-2.5,8.5
	c0.6,2,2.2,3.9,4.6,5.9C296.2,27,298.5,28.7,300.5,30L300.5,30z"/>
<path class="st0" d="M325.3,54.1l-0.5,1.4c-0.5,0.9-1.2,0.9-2.1,0l-4.7-7c2.6-0.3,5.2-0.8,7.7-1.4V32.5h-5.6l-0.7-1.6h6.3V15.4h-7
	l-0.7-1.6h15.5l3.8-4.9l4,4.7c0.6,0.8,0.5,1.4-0.2,1.9h-9.1v15.5h0.2l3.5-4.2l3.5,4.5c0.7-2,1.1-4.2,0.9-6.3
	c-0.3-2.2-0.1-2.9,0.7-2.1c1.1,0.9,1.9,3.1,2.6,6.6c0.3,2.2,0.3,4.4,0,6.6c-0.1,2-1.2,3.9-2.8,5.2c-1.6,0.9-2.8,0.8-3.8-0.5
	c-0.9-1.3-1-3-0.2-4.5l1.9-3.5h-6.6v13.4c3.3-0.8,6.2-1.5,8.7-2.1c3.4-0.8,3.6-0.2,0.5,1.9c-3.7,2.3-7.5,4.5-11.5,6.3L325.3,54.1z
	 M350.6,15.4v12.4c0,3.1-0.1,6-0.2,8.7c0.1,3.6-0.4,7.1-1.4,10.5c-1.7,5.6-5.5,10.2-11.5,13.6c-2.5,1.6-4.1,2.2-4.7,1.9
	c-0.3-0.1,0.2-0.9,1.6-2.1c1.8-1.5,3.5-3.2,4.9-5.1c2.4-3.3,4-7,4.7-11c0.7-5.1,1-10.3,0.9-15.5V7.7l6.6,0.9
	c1.3,0.5,1.3,1.3,0.2,2.6l-1.2,0.7v1.9h14.3l4-5.1l4.5,4.9c0.8,0.8,0.6,1.4-0.5,1.9h-10.1v18.8h1.6l3.8-5.1l4.2,4.7
	c0.9,1.1,0.9,1.8-0.2,2.1h-9.4v20.6h2.4l4.2-5.9l4.7,5.2c0.9,1.2,0.9,2-0.2,2.3h-28.3l-0.5-1.6h11.7V35.8h-5.2v-1.6h5.2V15.4
	L350.6,15.4z"/>
</svg>
